<?xml version="1.0" encoding="utf-8"?>
<!-- Generator: Adobe Illustrator 24.0.0, SVG Export Plug-In . SVG Version: 6.00 Build 0)  -->
<svg version="1.1" id="Bold" xmlns="http://www.w3.org/2000/svg" xmlns:xlink="http://www.w3.org/1999/xlink" x="0px" y="0px"
	 viewBox="0 0 512 512" style="enable-background:new 0 0 512 512;" xml:space="preserve">
<style type="text/css">
	.st0{fill:#48A3FF;}
</style>
<path class="st0" d="M76.4,452.2h304.2l-14.5-47l34.8,29.8l31.9,28.5l58,48.5V52.8C489.2,24.3,464.6,0,434.2,0L76.5,0.1
	C46,0.1,21.3,24.4,21.3,52.9v346.5C21.3,429.5,46,452.2,76.4,452.2L76.4,452.2z M301.4,121.2l-0.7,0.3l0.3-0.3H301.4z M138.6,148.3
	c39.1-28.5,75.3-27.1,75.3-27.1l2.9,2.9c-47.9,11.4-69.5,32.8-69.5,32.8s5.8-2.8,15.9-7.2c64.4-25.3,134.8-23.5,200,8.6
	c0,0-21.7-20-66.6-32.8l4-3.9c6.2,0,39.1,1.2,74.2,26.9c0,0,39.3,67.2,39.3,149.8c-1.3-1.6-24.4,35.5-83.9,36.8
	c0,0-10.1-11.4-17.2-21.3c34.8-10,47.8-30,47.8-30c-11.4,7.2-21.8,11.5-30.3,15.7c-13,5.7-26,8.5-39,11.4
	c-61.5,10-96.1-6.7-128.7-20l-11.2-5.7c0,0,13,20,46.4,30c-8.8,10-17.5,21.4-17.5,21.4c-59.4-1.4-81.1-38.5-81.1-38.5
	C99.5,215.4,138.6,148.3,138.6,148.3L138.6,148.3z"/>
<path class="st0" d="M305.2,272.4c15.2,0,27.5-12.8,27.5-28.6c0-15.7-12.3-28.5-27.5-28.5v0.1c-15.1,0-27.5,12.8-27.5,28.5
	S290.1,272.4,305.2,272.4z"/>
<path class="st0" d="M206.7,272.4c15.2,0,27.5-12.8,27.5-28.6c0-15.7-12.3-28.5-27.4-28.5l-0.1,0.1c-15.2,0-27.5,12.8-27.5,28.5
	S191.6,272.4,206.7,272.4z"/>
</svg>
