<?xml version="1.0" encoding="utf-8"?>
<!-- Generator: Adobe Illustrator 24.0.0, SVG Export Plug-In . SVG Version: 6.00 Build 0)  -->
<svg version="1.1" id="Capa_1" xmlns="http://www.w3.org/2000/svg" xmlns:xlink="http://www.w3.org/1999/xlink" x="0px" y="0px"
	 viewBox="0 0 512 512" style="enable-background:new 0 0 512 512;" xml:space="preserve">
<style type="text/css">
	.st0{fill:#48A3FF;}
</style>
<g>
	<path class="st0" d="M147.7,173.9C172.5,141.2,211.8,120,256,120c36.3,0,70.5,14.1,96.2,39.8l10.6,10.6l84.9-84.9L437,75
		C388.7,26.6,324.4,0,256,0S123.3,26.6,75,75c-4.4,4.4-8.6,8.9-12.6,13.6L147.7,173.9z"/>
	<path class="st0" d="M423.5,449.6c4.6-4,9.2-8.2,13.6-12.6c48.4-48.4,75-112.6,75-181c0-15.6-1.4-31.2-4.2-46.4l-2.3-12.3H241v120
		h136.5c-9.4,18.8-22.9,34.8-39.2,47.1L423.5,449.6z"/>
	<path class="st0" d="M311.6,380.2c-17.1,7.6-35.9,11.8-55.6,11.8c-44.2,0-83.5-21.2-108.3-53.9l-85.3,85.3c4,4.6,8.2,9.2,12.6,13.6
		c48.4,48.4,112.6,75,181,75c51.9,0,101.5-15.4,143.5-43.9L311.6,380.2z"/>
	<path class="st0" d="M131.9,311.5c-7.6-17-11.9-35.8-11.9-55.5s4.2-38.6,11.9-55.5L44,112.6C15.4,154.5,0,204.1,0,256
		s15.4,101.5,43.9,143.5L131.9,311.5z"/>
</g>
</svg>
