<svg id="Layer_1" data-name="Layer 1" xmlns="http://www.w3.org/2000/svg" viewBox="0 0 24 24">
  <defs>
    <style>
      .cls-1 {
        fill: white;
      }

      .cls-2 {
        fill: none;
      }
    </style>
  </defs>
  <title>441e37d1-ed5b-47ba-8d1a-2c62c16895bf</title>
  <g>
    <path class="cls-1" d="M9.333,2H18a4,4,0,0,1,4,4v8.667a0,0,0,0,1,0,0H9.333a0,0,0,0,1,0,0V2A0,0,0,0,1,9.333,2Z"/>
    <path class="cls-1" d="M6,2h.667a0,0,0,0,1,0,0V6.667a0,0,0,0,1,0,0H2a0,0,0,0,1,0,0V6A4,4,0,0,1,6,2Z"/>
    <path class="cls-1" d="M6,17.333h.667a0,0,0,0,1,0,0V22a0,0,0,0,1,0,0H2a0,0,0,0,1,0,0v-.667A4,4,0,0,1,6,17.333Z" transform="translate(-15.333 24) rotate(-90)"/>
    <path class="cls-1" d="M21.333,17.333H22a0,0,0,0,1,0,0V22a0,0,0,0,1,0,0H17.333a0,0,0,0,1,0,0v-.667A4,4,0,0,1,21.333,17.333Z" transform="translate(39.333 39.333) rotate(180)"/>
    <rect class="cls-1" x="2" y="9.333" width="4.667" height="4.667"/>
    <rect class="cls-1" x="9.333" y="17.333" width="4.667" height="4.667"/>
    <rect class="cls-2" width="24" height="24"/>
  </g>
</svg>
