<?xml version="1.0" encoding="utf-8"?>
<!-- Generator: Adobe Illustrator 24.0.0, SVG Export Plug-In . SVG Version: 6.00 Build 0)  -->
<svg version="1.1" id="Layer_1" xmlns="http://www.w3.org/2000/svg" xmlns:xlink="http://www.w3.org/1999/xlink" x="0px" y="0px"
	 viewBox="0 0 19.9 19.9" style="enable-background:new 0 0 19.9 19.9;" xml:space="preserve">
<style type="text/css">
	.st0{fill:#48A3FF;}
</style>
<title>Fichier 1</title>
<g id="Calque_2">
	<g id="Calque_1-2">
		<g>
			<path id="Shape" class="st0" d="M16.7,0H7.6v12.3h12.3V3.2C19.9,1.4,18.5,0,16.7,0L16.7,0z"/>
			<path class="st0" d="M4.8,0H3.2C1.4,0,0,1.4,0,3.2l0,0v1.6h4.8V0z"/>
			<polygon id="Rectangle-path" class="st0" points="0,7.6 4.8,7.6 4.8,12.3 0,12.3 			"/>
			<path class="st0" d="M15.2,19.9h1.6c1.8,0,3.2-1.4,3.2-3.2l0,0v-1.5h-4.8V19.9z"/>
			<polygon class="st0" points="7.6,15.2 12.3,15.2 12.3,19.9 7.6,19.9 			"/>
			<path class="st0" d="M0,15.2v1.6C0,18.6,1.4,20,3.2,20l0,0h1.6v-4.8H0z"/>
		</g>
	</g>
</g>
</svg>
